<?xml version="1.0" encoding="UTF-8"?>
<svg xmlns="http://www.w3.org/2000/svg" width="1600" height="720" viewBox="0 0 1600 720" role="img" aria-labelledby="title desc">
  <title id="title">NEO Logo 10 - Grid System</title>
  <desc id="desc">A modular grid logo made from blocks, built for digital systems.</desc>
  <defs>
    
  </defs>
  
      <g transform="translate(116 126)">
        <rect x="0" y="0" width="58" height="58" rx="12" fill="#0037D8"/>
        <rect x="0" y="78" width="58" height="58" rx="12" fill="#0037D8"/>
        <rect x="0" y="156" width="58" height="58" rx="12" fill="#0037D8"/>
        <rect x="0" y="234" width="58" height="58" rx="12" fill="#0037D8"/>
        <rect x="0" y="312" width="58" height="58" rx="12" fill="#0037D8"/>
        <rect x="78" y="78" width="58" height="58" rx="12" fill="#0037D8"/>
        <rect x="78" y="156" width="58" height="58" rx="12" fill="#0037D8"/>
        <rect x="156" y="156" width="58" height="58" rx="12" fill="#FF7A45"/>
        <rect x="156" y="234" width="58" height="58" rx="12" fill="#0037D8"/>
        <rect x="234" y="0" width="58" height="58" rx="12" fill="#0037D8"/>
        <rect x="234" y="78" width="58" height="58" rx="12" fill="#0037D8"/>
        <rect x="234" y="156" width="58" height="58" rx="12" fill="#0037D8"/>
        <rect x="234" y="234" width="58" height="58" rx="12" fill="#0037D8"/>
        <rect x="234" y="312" width="58" height="58" rx="12" fill="#0037D8"/>
      </g>
      <text x="536" y="336" fill="#26272F" font-family="Geist, Helvetica Neue, Arial, sans-serif" font-size="178" font-weight="950" letter-spacing="-8">NEO</text>
      <text x="550" y="430" fill="#0037D8" font-family="Geist, Helvetica Neue, Arial, sans-serif" font-size="45" font-weight="850" letter-spacing="12">THE AGENCY</text>
      <text x="552" y="494" fill="#66636D" font-family="Geist, Helvetica Neue, Arial, sans-serif" font-size="30" font-weight="600">Marketing systems that compound.</text>
      
</svg>
